/* XPM */
static char *_737a52f0da749fde1a51e8684de94efD7QkKTKIF6EsOBpO[] = {
/* columns rows colors chars-per-pixel */
"42 42 49 1 ",
"  c black",
". c #070605",
"X c #030802",
"o c #0A0808",
"O c #0E0B0A",
"+ c #0E0C0A",
"@ c #061104",
"# c #091A07",
"$ c #14110F",
"% c #1B1714",
"& c #1E1A17",
"* c #0C2209",
"= c #0F2B0B",
"- c #12330E",
"; c #153C11",
": c #28221E",
"> c #312A26",
", c #362E28",
"< c #3B332E",
"1 c #3C332D",
"2 c #443A32",
"3 c #453B35",
"4 c #453C35",
"5 c #184412",
"6 c #1B4C14",
"7 c #1E5517",
"8 c #215E1A",
"9 c #24661C",
"0 c #2A7720",
"q c #4A4037",
"w c #4F443D",
"e c #51453C",
"r c #584A41",
"t c #594C44",
"y c #594D44",
"u c #5E5046",
"i c #63554B",
"p c #63554C",
"a c #6C5C50",
"s c #6D5E53",
"d c #6C5D54",
"f c #77665B",
"g c #816E62",
"h c #8A776A",
"j c #2D8023",
"k c #308825",
"l c #3CA22F",
"z c #948072",
"x c #9E8879",
/* pixels */
"llllllllllllllllllllllllllllllllllllllllll",
"lkkkkkkkkkkkkkkkkkkkkkkkkkkkkkkkkkkkkkkkkl",
"lkkkkkkkkkkkkkkkkkkkkkkkj5*X X*70kkkkkkkkl",
"lkkkkkkkkkkkkkkkkkkkkkk6X       @7kkkkkkkl",
"lkkkkkkkkkkkkkkkkkkkkk5           5kkkkkkl",
"lkkkkkkkkkkkkkkkkkkkk6             6kkkkkl",
"lkkkkkkkkkkkkkkkkkkk0    owhxhw    X0kkkkl",
"lkkkkkkkkkkkkkkkkkkk-  oogxxxxxgo   ;kkkkl",
"lkkkkkkkkkkkkkkkkkk7    pxxxxxxxt   Xjkkkl",
"lkkkkkkkkkkkkkkkkk0@   :xxxxxs&fxo   9kkkl",
"lkkkkkkkkkkkkkkkkk-    hxxxxx< 4x<   #60kl",
"lkkkkkkkkkkkkkkkk9    3xxxxxxh1hxw      5l",
"lkkkkkkkkkkkkkkkk@    &zxxxxxxxxxw      Xl",
"lkkkkkkkkkkkkkkk5      3xxxxxxxxxw      @l",
"lkkkkkkkkkkkkkk0   +    fxxxxxxxxw    X*0l",
"lkkkkkkkkkkkkkk#  +r$   $xxxxxxxxw   ;kkkl",
"lkkkkkkkkkkkkk7   2su.   dxxxxxxxw   5kkkl",
"lkkkkkkkkkkkk0@  :sss,   :xxxxxxxw   5kkkl",
"lkkkkkkkkkkkk-  +usssu   oxxxxxxxw   5kkkl",
"lkkkkkkkkkkk7   2sssssO   hxxxxxx<   7kkkl",
"lkkkkkkkkkkj@  %sssaas$   gxxxxxx:   9kkkl",
"lkkkkkkkkkk5   ussssss$   fxxxxxx    0kkkl",
"lkkkkkkkkk0   ,ssssssa.   hxxxxxs   @kkkkl",
"lkkkkkkkkk@  Osssssssy    xxxxxx<   -kkkkl",
"lkkkkkkkk6   usssssss2   &xxxxxh    9kkkkl",
"lkkkkkkk0X  ,ssssssss%   4xxxxx:   @kkkkkl",
"lkkkkkkk-  +ssssssss2    hxxxxw    7kkkkkl",
"lkkkkkk7   esssssssu+   :xxxxi    =kkkkkkl",
"lkkkkk0@  :ssssssstO    hxxxt    @0kkkkkkl",
"lkkkkk-  .quuuuur1.    wxxz<     8kkkkkkkl",
"lkkkk0                >zf4o     7kkkkkkkkl",
"lkkkk@                o       X7kkkkkkkkkl",
"lkkk5                        *0kkkkkkkkkkl",
"lkk0                       @7kkkkkkkkkkkkl",
"lkk*                       kkkkkkkkkkkkkkl",
"lk7    600000000    000    kkkkkkkkkkkkkkl",
"lk@   -kkkkkkkkk    kkk    kkkkkkkkkkkkkkl",
"lkX  X0kkkkkkkkk    kkk    kkkkkkkkkkkkkkl",
"lk6XX7kkkkkkkkkk    kkk    kkkkkkkkkkkkkkl",
"lkkkkkkkkkkkkkkkX  @kkkX  @kkkkkkkkkkkkkkl",
"lkkkkkkkkkkkkkkk7@X7kkk7@X7kkkkkkkkkkkkkkl",
"llllllllllllllllllllllllllllllllllllllllll"
};
