/* XPM */
static char *result[] = {
/* columns rows colors chars-per-pixel */
"42 42 61 1 ",
"  c black",
". c #070605",
"X c #030802",
"o c #0A0808",
"O c #0E0C0A",
"+ c #061104",
"@ c #061105",
"# c #091A07",
"$ c #14110F",
"% c #1B1714",
"& c #1E1917",
"* c #1D1A17",
"= c #1E1A16",
"- c #1E1A17",
"; c #221D19",
": c #0C2209",
"> c #0F2A0B",
", c #0F2B0B",
"< c #12330E",
"1 c #153B10",
"2 c #153C10",
"3 c #28221E",
"4 c #29221E",
"5 c #2F2823",
"6 c #312B26",
"7 c #3B332E",
"8 c #3C332D",
"9 c #3C332E",
"0 c #3D342D",
"q c #443A32",
"w c #453C35",
"e c #184412",
"r c #1B4C14",
"t c #1B4D15",
"y c #1E5517",
"u c #215E1A",
"i c #24661C",
"p c #276E1E",
"a c #2A7720",
"s c #4F443D",
"d c #51453C",
"f c #584B41",
"g c #594C44",
"h c #594D44",
"j c #5E5046",
"k c #5E5146",
"l c #65564B",
"z c #63554C",
"x c #6C5C50",
"c c #6D5E53",
"v c #76665B",
"b c #77665B",
"n c #816E62",
"m c #806F62",
"M c #8A776A",
"N c #8B776A",
"B c #2D8023",
"V c #308825",
"C c #3CA22F",
"Z c #948072",
"A c #9E8879",
/* pixels */
"CCCCCCCCCCCCCCCCCCCCCCCCCCCCCCCCCCCCCCCCCC",
"CVVVVVVVVVVVVVVVVVVVVVVVVVVVVVVVVVVVVVVVVC",
"CVVVVVVVVVBe:X X:yaVVVVVVVVVVVVVVVVVVVVVVC",
"CVVVVVVVVrX       @yVVVVVVVVVVVVVVVVVVVVVC",
"CVVVVVVVe           eVVVVVVVVVVVVVVVVVVVVC",
"CVVVVVVr             rVVVVVVVVVVVVVVVVVVVC",
"CVVVVVaX   osMAMs    XaVVVVVVVVVVVVVVVVVVC",
"CVVVVV<   onAAAAAno X :VVVVVVVVVVVVVVVVVVC",
"CVVVVVX   zAAAAAAAh    yVVVVVVVVVVVVVVVVVC",
"CVVVVi   $Ac-cAAAAA3   XBVVVVVVVVVVVVVVVVC",
"CVVar#   6A7 9AAAAAMo   1VVVVVVVVVVVVVVVVC",
"CVe      sAM8NAAAAAAs    iVVVVVVVVVVVVVVVC",
"CV       sAAAAAAAAAA*    @BVVVVVVVVVVVVVVC",
"CV#X     sAAAAAAAAAw      eVVVVVVVVVVVVVVC",
"CVa>X    sAAAAAAAAz    .   aVVVVVVVVVVVVVC",
"CVVVV<   sAAAAAAAA$   OjO  :VVVVVVVVVVVVVC",
"CVVVVe   sAAAAAAAz    jxd   rVVVVVVVVVVVVC",
"CVVVVe   sAAAAAAA3   4xxx;  XBVVVVVVVVVVVC",
"CVVVVe   sAAAAAAAo   jxxxl.  ,VVVVVVVVVVVC",
"CVVVVy   9AAAAAAM   .xxxxx0   iVVVVVVVVVVC",
"CVVVVu   &AAAAAAm   %xxxxxx%  @BVVVVVVVVVC",
"CVVVVa   oZAAAAAm   $xxxxxxj.  1VVVVVVVVVC",
"CVVVVV+   bAAAAAM   Oxxxxxxx0   pVVVVVVVVC",
"CVVVVV2   3AAAAAA    lxxxxxxx$  :VVVVVVVVC",
"CVVVVVi    bAAAAA=   0xxxxxxxf   rVVVVVVVC",
"CVVVVVV:   3AAAAAs   %xxxxxxxx5  XaVVVVVVC",
"CVVVVVVi    gAAAAb    dxxxxxxxlO  :VVVVVVC",
"CVVVVVVV:    zAAAA3   Ojxxxxxxxd   uVVVVVC",
"CVVVVVVVaX    gAAAb    Ojxxxxxxx5  @BVVVVC",
"CVVVVVVVVu     8NAAw    Oqfkkkkkd   1VVVVC",
"CVVVVVVVVVy      8vZ3                iVVVC",
"CVVVVVVVVVVyX       $                #VVVC",
"CVVVVVVVVVVVa+                        eVVC",
"CVVVVVVVVVVVVVy+                      XaVC",
"CVVVVVVVVVVVVVVV                       :VC",
"CVVVVVVVVVVVVVVV    aaa    aaaaaaaay    rC",
"CVVVVVVVVVVVVVVV    VVV    VVVVVVVVV:   XC",
"CVVVVVVVVVVVVVVV    VVV    VVVVVVVVVaX  @C",
"CVVVVVVVVVVVVVVV    VVV    VVVVVVVVVVt XyC",
"CVVVVVVVVVVVVVVVX  @VVVX  @VVVVVVVVVVVVVVC",
"CVVVVVVVVVVVVVVVy+XyVVVy+XyVVVVVVVVVVVVVVC",
"CCCCCCCCCCCCCCCCCCCCCCCCCCCCCCCCCCCCCCCCCC"
};
