/* XPM */
static char *_3459f75e5624763c59bdecbdde0e4a1NDdchMiB5jXk5I1G[] = {
/* columns rows colors chars-per-pixel */
"42 42 36 1 ",
"  c black",
". c #0A0404",
"X c #030802",
"o c #130808",
"O c #140808",
"+ c #1D0C0C",
"@ c #061105",
"# c #091A07",
"$ c #271010",
"% c #311414",
"& c #3A1818",
"* c #0C2209",
"= c #0F2B0B",
"- c #0F2B0C",
"; c #12330E",
": c #153C10",
"> c #431C1C",
", c #441C1C",
"< c #4E2020",
"1 c #582424",
"2 c #612828",
"3 c #743131",
"4 c #7E3535",
"5 c #184412",
"6 c #1B4C14",
"7 c #1E5517",
"8 c #215E1A",
"9 c #24661C",
"0 c #276E1E",
"q c #2A7720",
"w c #883939",
"e c #913D3D",
"r c #9B4141",
"t c #2D8023",
"y c #308825",
"u c #3CA22F",
/* pixels */
"uuuuuuuuuuuuuuuuuuuuuuuuuuuuuuuuuuuuuuuuuu",
"uyyyyyyyyyyyyyyyyyyyyyyyyyyyyyyyyyyyyyyyyu",
"uyyyyyyyyyyyyyyyyyyyyyyyyyyyyyyyyyyyyyyyyu",
"uyyyyyyyyyyyyyyyyyyyyyyyyyyyyyyyyyyyyyyyyu",
"uyyyyyyyyyyyyyyyyyyyyyyyyyyyyyyyyyyyyyyyyu",
"uyyyyyyyyyyyyyyyyyyyyyyyyyyyyyyyyyyyyyyyyu",
"uyyyyyyyyy95*X  #=7tyyyyyyyyyyyyyyyyyyyyyu",
"uyyyyyyy9*         @5yyyyyyyyyyyyyyyyyyyyu",
"uyyyyyy:             @qyyyyyyyyyyyyyyyyyyu",
"uyyyyy;               @qyyyyyyyyyyyyyyyyyu",
"uyyyy7     $2wre3&O    @tyyyyyyyyyyyyyyyyu",
"uyyyy*   o3rrrrrrrw&    =yyyyyyyyyyyyyyyyu",
"uyyyy    wrrrrrrrrrr>    9yyyyyyyyyyyyyyyu",
"uyyyy    erre<&>3rrrr$   *yyyyyyyyyyyyyyyu",
"uyyyy*   %3<o    ,rrr3   Xtyyyyyyyyyyyyyyu",
"uyyyy5            1rrrO   9yyyyyyyyyyyyyyu",
"uyyyyt@           .rrr&   7yyyyyyyyyyyyyyu",
"uyyyyyq#     X5X   wrr&   7yyyyyyyyyyyyyyu",
"uyyyyyyy7;*;6tq    err&   7yyyyyyyyyyyyyyu",
"uyyyyyyyyyyyyy7   $rrr+   9yyy6@;tyyyyyyyu",
"uyyyyyyyyyyyyy-   1rrw    tyy9   5yyyyyyyu",
"uyyyyyyyyyyyyy    4rr2   #yyy*   :yyyyyyyu",
"uyyyyyyyyyyyy0   orrr%   6yy9    qyyyyyyyu",
"uyyyyyyyyyyyy8   $rrr    0yq#   ;yyyyyyyyu",
"uyyyyyyyyyyyy7   &rrr    0=     ;tyyyyyyyu",
"uyyyyyyyyyyyy8   %rrr.           *yyyyyyyu",
"uyyyyyyyyyyyyq   .rrr<            6yyyyyyu",
"uyyyyyyyyyyyyyX   3rrr+     $<O   @yyyyyyu",
"uyyyyyyyyyyyyy:   $rrrr2$O$2rre    tyyyyyu",
"uyyyyyyyyyyyyy9    ,rrrrrrrrrrr.   tyyyyyu",
"uyyyyyyyyyyyyyy;    <rrrrrrrre,    *9yyyyu",
"uyyyyyyyyyyyyyyt@    o2errre<.       5yyyu",
"uyyyyyyyyyyyyyyyq@      O+O          Xyyyu",
"uyyyyyyyyyyyyyyyyq@             @;   @yyyu",
"uyyyyyyyyyyyyyyyyyq;          X5tyq;;qyyyu",
"uyyyyyyyyyyyyyyyyyyyq5#     *5tyyyyyyyyyyu",
"uyyyyyyyyyyyyyyyyyyyyyyyq0qyyyyyyyyyyyyyyu",
"uyyyyyyyyyyyyyyyyyyyyyyyyyyyyyyyyyyyyyyyyu",
"uyyyyyyyyyyyyyyyyyyyyyyyyyyyyyyyyyyyyyyyyu",
"uyyyyyyyyyyyyyyyyyyyyyyyyyyyyyyyyyyyyyyyyu",
"uyyyyyyyyyyyyyyyyyyyyyyyyyyyyyyyyyyyyyyyyu",
"uuuuuuuuuuuuuuuuuuuuuuuuuuuuuuuuuuuuuuuuuu"
};
