/* XPM */
static char *b65a2091eb1f4a05e886894dd34da2b9kYfNxm596ARAHjN5[] = {
/* columns rows colors chars-per-pixel */
"42 42 11 1 ",
"  c #5BBEEF",
". c #84CFF3",
"X c #8FD3F0",
"o c #99D6F5",
"O c #ADDFF7",
"+ c #B7E3F8",
"@ c #C2E7F9",
"# c #D6EFFB",
"$ c #E1F3FC",
"% c #EBF7FD",
"& c white",
/* pixels */
"XXXXXXXXXXXXXXXXXXXXXXXXXXXXXXXXXXXXXXXXXX",
"X                                        X",
"X                                        X",
"X                                        X",
"X                                        X",
"X                                        X",
"X                                        X",
"X                                        X",
"X                                        X",
"X                                        X",
"X            ..................          X",
"X            &&&&&&&&&&&&&&&&&%          X",
"X            &&&&&&&&&&&&&&&&&%          X",
"X            &&&&&&&&&&&&&&&&&%          X",
"X            &&&&&&&&&&&&&&&&&%          X",
"X            &&&&&&&&&&&&&&&&&%          X",
"X            &&&&&&.                     X",
"X            &&&&&&.                     X",
"X            &&&&&&.                     X",
"X            &&&&&&.                     X",
"X            &&&&&&.                     X",
"X            &&&&&&$#########+           X",
"X            &&&&&&&&&&&&&&&&#           X",
"X            &&&&&&&&&&&&&&&&#           X",
"X            &&&&&&&&&&&&&&&&#           X",
"X            &&&&&&&&&&&&&&&&#           X",
"X            &&&&&&@OOOOOOOOOo           X",
"X            &&&&&&.                     X",
"X            &&&&&&.                     X",
"X            &&&&&&.                     X",
"X            &&&&&&.                     X",
"X            &&&&&&.                     X",
"X            &&&&&&.                     X",
"X            &&&&&&.                     X",
"X            &&&&&&.                     X",
"X            &&&&&&.                     X",
"X            &&&&&&.                     X",
"X                                        X",
"X                                        X",
"X                                        X",
"X                                        X",
"XXXXXXXXXXXXXXXXXXXXXXXXXXXXXXXXXXXXXXXXXX"
};
