/* XPM */
static char *fee627b127ab48b4bef18cf8a819fe31cVuyeYBM2mwbF3di[] = {
/* columns rows colors chars-per-pixel */
"42 42 2 1 ",
"  c #308825",
". c #3CA22F",
/* pixels */
"..........................................",
".                                        .",
".                                        .",
".                                        .",
".                                        .",
".                                        .",
".                                        .",
".                                        .",
".                                        .",
".                                        .",
".                                        .",
".                                        .",
".                                        .",
".                                        .",
".                                        .",
".                                        .",
".                                        .",
".                                        .",
".                                        .",
".                                        .",
".                                        .",
".                                        .",
".                                        .",
".                                        .",
".                                        .",
".                                        .",
".                                        .",
".                                        .",
".                                        .",
".                                        .",
".                                        .",
".                                        .",
".                                        .",
".                                        .",
".                                        .",
".                                        .",
".                                        .",
".                                        .",
".                                        .",
".                                        .",
".                                        .",
".........................................."
};
