/* XPM */
static char *result[] = {
/* columns rows colors chars-per-pixel */
"42 42 32 1 ",
"  c #308825",
". c #348D29",
"X c #38922C",
"o c #38932D",
"O c #3C9830",
"+ c #3C9831",
"@ c #3CA22F",
"# c #409D34",
"$ c #409E35",
"% c #44A238",
"& c #44A338",
"* c #44A339",
"= c #48A83C",
"- c #4CAD3F",
"; c #4CAE3F",
": c #4CAE40",
"> c #50B243",
", c #50B344",
"< c #54B747",
"1 c #54B847",
"2 c #54B848",
"3 c #58BD4B",
"4 c #58BE4C",
"5 c #5CC34E",
"6 c #5CC34F",
"7 c #60C853",
"8 c #64CD56",
"9 c #64CD57",
"0 c #68D25A",
"q c #68D35A",
"w c #6CD85E",
"e c #70DD62",
/* pixels */
"@@@@@@@@@@@@@@@@@@@@@@@@@@@@@@@@@@@@@@@@@@",
"@              $;6qweew96,$              @",
"@           .,weeeeeeeeeeee03X           @",
"@         .2eeeeeeeeeeeeeeeeee3X         @",
"@        :weeeeeeeeeeeeeeeeeeee0=        @",
"@       2eeeeeew3=O.  .O=3weeeeee2       @",
"@     .7eeeee0=.           =qeeeee7.     @",
"@     7eeeew-                -weeee7     @",
"@    2eeee0X    .*167771*.    oqeeee2    @",
"@   =eeee9X   .,weeeeeeeew3X   o9eeee:   @",
"@  oqeee0X   :weeeeeeeeeeee0=   oqeeew.  @",
"@  3eeewX   ,eeeeeeeeeeeeeeee,   oweee2  @",
"@ oeeee-   ,eeeeew1%##%3qeeeee,   -eeee. @",
"@ 3eee0   =eeeew-        -weeee:   qeee, @",
"@ qeee=  oqeee0X          oqeeew.  =eeew @",
"@$eeew   3eeewX   .;11=X   oweee,  .weee#@",
"@,eee3  .weee-   :weeee0=   -eeew.  4eee:@",
"@5eee=  %eee0   =eeeeeeee:   weee&  =eee6@",
"@8eeeO  2eee3  oqeeeeeeeew.  2eee2  Oeee0@",
"@weee.  7eee&  =eeee><eeee:  %eee6  .eeew@",
"@eeee   7eee#  2eee2  ,eee2  $eee7   eeee@",
"@eeee   7eee#  2eee,  <eee2  $eee7   eeee@",
"@weee.  5eee&  :eeee2,eeee=  %eee7  .eeew@",
"@qeeeO  2eee2  .weeeeeeee0X  3eee2  Oeee9@",
"@5eee=  %eeew   -eeeeeeee=   qeee&  =eee6@",
"@:eee3  .weee:   =qeeeew-   :eeew.  3eee,@",
"@#eeew.  ,eeewX   o=11;.   oweee3   weee#@",
"@ weee=  .weee0X          oqeee0X  =eee0 @",
"@ ,eee0   -eeeew:        :weeee=   qeee3 @",
"@ .eeee:   >eeeee03*$$*1weeeee>   :eeeeX @",
"@  <eeewX   >eeeeeeeeeeeeeeee>   oweee3  @",
"@  .weee0X   =qeeeeeeeeeeeew-   oqeee0X  @",
"@   =eeee9X   o3weeeeeeeew>.   o9eeee=   @",
"@    <eeee0X    .%177761%.    oqeeee<    @",
"@     7eeeew:                :weeee7     @",
"@     .7eeeee0=           .=qeeeee7.     @",
"@       <eeeeeew3=+.  .+=3weeeeee<       @",
"@        =qeeeeeeeeeeeeeeeeeeeew-        @",
"@         o3eeeeeeeeeeeeeeeeee<.         @",
"@           o3qeeeeeeeeeeeew>.           @",
"@              #,69weewq6;#              @",
"@@@@@@@@@@@@@@@@@@@@@@@@@@@@@@@@@@@@@@@@@@"
};
