/* XPM */
static char * obs_xpm[] = {
"42 42 33 1",
" 	c #9C7654",
".	c #7B4F23",
"+	c #825528",
"@	c #A47341",
"#	c #A87644",
"$	c #8F6132",
"%	c #AB7947",
"&	c #B27F4C",
"*	c #906132",
"=	c #7F5225",
"-	c #AE7C49",
";	c #85582A",
">	c #9D6D3D",
",	c #9A6A3A",
"'	c #976738",
")	c #9D6D3C",
"!	c #885B2D",
"~	c #A47342",
"{	c #895B2D",
"]	c #A0703F",
"^	c #9A6A3B",
"/	c #966737",
"(	c #8C5E30",
"_	c #AE7C4A",
":	c #A77644",
"<	c #A87645",
"[	c #7F5226",
"}	c #936434",
"|	c #946435",
"1	c #8C5E2F",
"2	c #85582B",
"3	c #8B5E30",
"4	c #A1703F",
"                                          ",
" ........................................ ",
" ........................................ ",
" ........................................ ",
" ........................................ ",
" ........................................ ",
" ..................+@#$.................. ",
" .................+%&&&*................. ",
" ................=#&&&&&*................ ",
" ................#&&&&&&-;............... ",
" ...............>&&&&&&&&-;.............. ",
" ..............,&&&&#'&&&&%+............. ",
" .............'&&&&%+.'&&&&%+............ ",
" ............$&&&&%+...'&&&&@............ ",
" ............)&&&&!.....~&&&&=........... ",
" ............)&&&&%....$&&&&&=........... ",
" ............{&&&&&=...)&&&&@............ ",
" ............,&&&&]....{&&&&%+........... ",
" ...........'&&&&%=.....'&&&&%+.......... ",
" ..........'&&&&%+.......'&&&&%=......... ",
" .........+&&&&%+.........^&&&&/......... ",
" .........(&&&&/..........+_&&&:......... ",
" .........$&&&&&!.........<&&&&@......... ",
" .........[_&&&&(.........%&&&&}......... ",
" .........'&&&&%..........|&&&&%+........ ",
" ........'&&&&%+...........'&&&&#=....... ",
" .......1&&&&%+.............>&&&&@....... ",
" .......%&&&_2...............~&&&&3...... ",
" ......+&&&&_%%%%%%%%%%%%%%%%%&&&&,...... ",
" ......[&&&&&&&&&&&&&&&&&&&&&&&&&&}...... ",
" .......^&&&&&&&&&&&&&&&&&&&&&&&&%+...... ",
" ........^&&&&&&&&&&&&&&&&&&&&&&~2....... ",
" ..........++++++++<&&&(+++++++=......... ",
" ..................~&&&!................. ",
" ..................4&&&;................. ",
" ..................(&&>.................. ",
" ...................=+................... ",
" ........................................ ",
" ........................................ ",
" ........................................ ",
" ........................................ ",
"                                          "};
